# xmcd
#
# Track frame offsets:
#	150
#	8761
#	20700
#	33127
#	43793
#	54230
#	62155
#	71148
#	82321
#	95748
#	106096
#	119156
#	129601
#
# Disc length: 1917 seconds
#
# Revision: 2
# Processed by: cddbd v1.5.1PL0 Copyright (c) Steve Scherf et al.
# Submitted via: audiograbber 1.83.01
#
DISCID=b8077b0d
DTITLE=Gypsy Carns - Raw-Word
DYEAR=2004
DGENRE=Sacred Blues
TTITLE0=Rainbow
TTITLE1=Cause and Effect
TTITLE2=Satan Never Sleeps
TTITLE3=I'm Alright
TTITLE4=Jesus Is Risin'
TTITLE5=Dark Eternity
TTITLE6=Your Sins Will Find You Out
TTITLE7=Holy Is the Son
TTITLE8=Can't Cheat the Reaper
TTITLE9=Universe of Man
TTITLE10=Lord Bring Your Kingdom Down
TTITLE11=Save My Soul
TTITLE12=Pray for Love
EXTD=
EXTT0=
EXTT1=
EXTT2=
EXTT3=
EXTT4=
EXTT5=
EXTT6=
EXTT7=
EXTT8=
EXTT9=
EXTT10=
EXTT11=
EXTT12=
PLAYORDER=
